<svg id="visual" viewBox="0 0 900 600" width="900" height="600" xmlns="http://www.w3.org/2000/svg" xmlns:xlink="http://www.w3.org/1999/xlink" version="1.1"><rect x="0" y="0" width="900" height="600" fill="#000000"></rect><path d="M0 408L16.7 400.8C33.3 393.7 66.7 379.3 100 359.7C133.3 340 166.7 315 200 305.7C233.3 296.3 266.7 302.7 300 328.3C333.3 354 366.7 399 400 402.2C433.3 405.3 466.7 366.7 500 354.5C533.3 342.3 566.7 356.7 600 380C633.3 403.3 666.7 435.7 700 454.8C733.3 474 766.7 480 800 467.3C833.3 454.7 866.7 423.3 883.3 407.7L900 392L900 601L883.3 601C866.7 601 833.3 601 800 601C766.7 601 733.3 601 700 601C666.7 601 633.3 601 600 601C566.7 601 533.3 601 500 601C466.7 601 433.3 601 400 601C366.7 601 333.3 601 300 601C266.7 601 233.3 601 200 601C166.7 601 133.3 601 100 601C66.7 601 33.3 601 16.7 601L0 601Z" fill="#FFFFFF" stroke-linecap="round" stroke-linejoin="miter"></path></svg>