<svg id="visual" viewBox="0 0 900 600" width="900" height="600" xmlns="http://www.w3.org/2000/svg" xmlns:xlink="http://www.w3.org/1999/xlink" version="1.1"><rect x="0" y="0" width="900" height="600" fill="#000000"></rect><path d="M0 272L5.3 295.5C10.7 319 21.3 366 32 370C42.7 374 53.3 335 64 302.7C74.7 270.3 85.3 244.7 96.2 268.7C107 292.7 118 366.3 128.8 376.2C139.7 386 150.3 332 161 293.8C171.7 255.7 182.3 233.3 193 257.2C203.7 281 214.3 351 225 354.8C235.7 358.7 246.3 296.3 257 298.3C267.7 300.3 278.3 366.7 289 389C299.7 411.3 310.3 389.7 321.2 389.7C332 389.7 343 411.3 353.8 426.2C364.7 441 375.3 449 386 421.2C396.7 393.3 407.3 329.7 418 298.7C428.7 267.7 439.3 269.3 450 292.3C460.7 315.3 471.3 359.7 482 387.2C492.7 414.7 503.3 425.3 514 410.2C524.7 395 535.3 354 546.2 325.7C557 297.3 568 281.7 578.8 263.5C589.7 245.3 600.3 224.7 611 219.3C621.7 214 632.3 224 643 235.3C653.7 246.7 664.3 259.3 675 254C685.7 248.7 696.3 225.3 707 234.5C717.7 243.7 728.3 285.3 739 304.3C749.7 323.3 760.3 319.7 771.2 303.2C782 286.7 793 257.3 803.8 242.5C814.7 227.7 825.3 227.3 836 239C846.7 250.7 857.3 274.3 868 306.5C878.7 338.7 889.3 379.3 894.7 399.7L900 420L900 601L894.7 601C889.3 601 878.7 601 868 601C857.3 601 846.7 601 836 601C825.3 601 814.7 601 803.8 601C793 601 782 601 771.2 601C760.3 601 749.7 601 739 601C728.3 601 717.7 601 707 601C696.3 601 685.7 601 675 601C664.3 601 653.7 601 643 601C632.3 601 621.7 601 611 601C600.3 601 589.7 601 578.8 601C568 601 557 601 546.2 601C535.3 601 524.7 601 514 601C503.3 601 492.7 601 482 601C471.3 601 460.7 601 450 601C439.3 601 428.7 601 418 601C407.3 601 396.7 601 386 601C375.3 601 364.7 601 353.8 601C343 601 332 601 321.2 601C310.3 601 299.7 601 289 601C278.3 601 267.7 601 257 601C246.3 601 235.7 601 225 601C214.3 601 203.7 601 193 601C182.3 601 171.7 601 161 601C150.3 601 139.7 601 128.8 601C118 601 107 601 96.2 601C85.3 601 74.7 601 64 601C53.3 601 42.7 601 32 601C21.3 601 10.7 601 5.3 601L0 601Z" fill="#FFFFFF" stroke-linecap="round" stroke-linejoin="miter"></path></svg>